<mxfile host="app.diagrams.net" agent="Mozilla/5.0 (Windows NT 10.0; Win64; x64) AppleWebKit/537.36 (KHTML, like Gecko) Chrome/136.0.0.0 Safari/537.36" version="26.2.13">
  <diagram name="Trang-1" id="sPgYepk3DH2kvt2qi6OL">
    <mxGraphModel dx="1894" dy="561" grid="1" gridSize="10" guides="1" tooltips="1" connect="1" arrows="1" fold="1" page="1" pageScale="1" pageWidth="850" pageHeight="1100" math="0" shadow="0">
      <root>
        <mxCell id="0" />
        <mxCell id="1" parent="0" />
        <mxCell id="4pqUdJiJh8T_FT4J9yoT-44" value="System" style="swimlane;whiteSpace=wrap" parent="1" vertex="1">
          <mxGeometry x="320" y="50" width="360" height="910" as="geometry" />
        </mxCell>
        <mxCell id="4pqUdJiJh8T_FT4J9yoT-45" value="" style="rhombus;" parent="4pqUdJiJh8T_FT4J9yoT-44" vertex="1">
          <mxGeometry x="100" y="95" width="30" height="30" as="geometry" />
        </mxCell>
        <mxCell id="4pqUdJiJh8T_FT4J9yoT-46" value="Display danh sách accounts" style="html=1;align=center;verticalAlign=middle;rounded=1;absoluteArcSize=1;arcSize=10;dashed=0;whiteSpace=wrap;labelPosition=center;verticalLabelPosition=middle;" parent="4pqUdJiJh8T_FT4J9yoT-44" vertex="1">
          <mxGeometry x="60" y="180" width="110" height="50" as="geometry" />
        </mxCell>
        <mxCell id="4pqUdJiJh8T_FT4J9yoT-47" style="edgeStyle=orthogonalEdgeStyle;rounded=0;orthogonalLoop=1;jettySize=auto;html=1;exitX=0.5;exitY=1;exitDx=0;exitDy=0;entryX=0.5;entryY=0;entryDx=0;entryDy=0;" parent="4pqUdJiJh8T_FT4J9yoT-44" source="4pqUdJiJh8T_FT4J9yoT-45" target="4pqUdJiJh8T_FT4J9yoT-46" edge="1">
          <mxGeometry relative="1" as="geometry" />
        </mxCell>
        <mxCell id="4pqUdJiJh8T_FT4J9yoT-48" value="User" style="swimlane;whiteSpace=wrap" parent="1" vertex="1">
          <mxGeometry x="680" y="50" width="340" height="910" as="geometry" />
        </mxCell>
        <mxCell id="4pqUdJiJh8T_FT4J9yoT-49" value="Thông tin người dùng&lt;div&gt;[Đã cập nhật]&lt;/div&gt;" style="html=1;align=center;verticalAlign=middle;dashed=0;whiteSpace=wrap;" parent="4pqUdJiJh8T_FT4J9yoT-48" vertex="1">
          <mxGeometry x="115" y="675" width="135" height="40" as="geometry" />
        </mxCell>
        <mxCell id="4pqUdJiJh8T_FT4J9yoT-50" value="" style="endArrow=open;startArrow=none;endFill=0;startFill=0;endSize=8;html=1;verticalAlign=bottom;dashed=1;labelBackgroundColor=none;rounded=0;entryX=0;entryY=0.5;entryDx=0;entryDy=0;" parent="4pqUdJiJh8T_FT4J9yoT-48" target="4pqUdJiJh8T_FT4J9yoT-49" edge="1">
          <mxGeometry width="160" relative="1" as="geometry">
            <mxPoint x="-125" y="695" as="sourcePoint" />
            <mxPoint x="64" y="695" as="targetPoint" />
          </mxGeometry>
        </mxCell>
        <mxCell id="4pqUdJiJh8T_FT4J9yoT-51" value="" style="endArrow=open;startArrow=none;endFill=0;startFill=0;endSize=8;html=1;verticalAlign=bottom;dashed=1;labelBackgroundColor=none;rounded=0;exitX=0.5;exitY=0;exitDx=0;exitDy=0;entryX=0.5;entryY=1;entryDx=0;entryDy=0;" parent="4pqUdJiJh8T_FT4J9yoT-48" source="4pqUdJiJh8T_FT4J9yoT-49" target="4pqUdJiJh8T_FT4J9yoT-53" edge="1">
          <mxGeometry width="160" relative="1" as="geometry">
            <mxPoint x="70" y="570" as="sourcePoint" />
            <mxPoint x="155" y="570" as="targetPoint" />
          </mxGeometry>
        </mxCell>
        <mxCell id="4pqUdJiJh8T_FT4J9yoT-52" style="edgeStyle=orthogonalEdgeStyle;rounded=0;orthogonalLoop=1;jettySize=auto;html=1;exitX=0.5;exitY=0;exitDx=0;exitDy=0;entryX=0.5;entryY=1;entryDx=0;entryDy=0;" parent="4pqUdJiJh8T_FT4J9yoT-48" source="4pqUdJiJh8T_FT4J9yoT-53" target="4pqUdJiJh8T_FT4J9yoT-54" edge="1">
          <mxGeometry relative="1" as="geometry" />
        </mxCell>
        <mxCell id="4pqUdJiJh8T_FT4J9yoT-53" value="Xác nhận thông tin updated account" style="html=1;align=center;verticalAlign=middle;rounded=1;absoluteArcSize=1;arcSize=10;dashed=0;whiteSpace=wrap;labelPosition=center;verticalLabelPosition=middle;" parent="4pqUdJiJh8T_FT4J9yoT-48" vertex="1">
          <mxGeometry x="130" y="520" width="105" height="50" as="geometry" />
        </mxCell>
        <mxCell id="4pqUdJiJh8T_FT4J9yoT-54" value="" style="ellipse;html=1;shape=endState;fillColor=strokeColor;" parent="4pqUdJiJh8T_FT4J9yoT-48" vertex="1">
          <mxGeometry x="167.5" y="430" width="30" height="30" as="geometry" />
        </mxCell>
        <mxCell id="4pqUdJiJh8T_FT4J9yoT-55" style="rounded=0;orthogonalLoop=1;jettySize=auto;html=1;exitX=1;exitY=0.5;exitDx=0;exitDy=0;entryX=0;entryY=0.5;entryDx=0;entryDy=0;" parent="1" source="4pqUdJiJh8T_FT4J9yoT-2" target="4pqUdJiJh8T_FT4J9yoT-45" edge="1">
          <mxGeometry relative="1" as="geometry">
            <mxPoint x="340" y="180" as="targetPoint" />
          </mxGeometry>
        </mxCell>
        <mxCell id="4pqUdJiJh8T_FT4J9yoT-56" style="edgeStyle=orthogonalEdgeStyle;rounded=0;orthogonalLoop=1;jettySize=auto;html=1;exitX=1;exitY=0.5;exitDx=0;exitDy=0;entryX=0.5;entryY=0;entryDx=0;entryDy=0;" parent="1" source="4pqUdJiJh8T_FT4J9yoT-27" target="4pqUdJiJh8T_FT4J9yoT-45" edge="1">
          <mxGeometry relative="1" as="geometry">
            <mxPoint x="440" y="140" as="targetPoint" />
            <Array as="points">
              <mxPoint x="505" y="870" />
              <mxPoint x="650" y="870" />
              <mxPoint x="650" y="110" />
              <mxPoint x="425" y="110" />
            </Array>
          </mxGeometry>
        </mxCell>
        <mxCell id="4pqUdJiJh8T_FT4J9yoT-57" style="edgeStyle=orthogonalEdgeStyle;rounded=0;orthogonalLoop=1;jettySize=auto;html=1;exitX=0.5;exitY=0;exitDx=0;exitDy=0;entryX=1;entryY=0.5;entryDx=0;entryDy=0;" parent="1" source="4pqUdJiJh8T_FT4J9yoT-28" target="4pqUdJiJh8T_FT4J9yoT-45" edge="1">
          <mxGeometry relative="1" as="geometry" />
        </mxCell>
        <mxCell id="4pqUdJiJh8T_FT4J9yoT-58" style="edgeStyle=orthogonalEdgeStyle;rounded=0;orthogonalLoop=1;jettySize=auto;html=1;exitX=0;exitY=0.5;exitDx=0;exitDy=0;entryX=1;entryY=0.5;entryDx=0;entryDy=0;" parent="1" source="4pqUdJiJh8T_FT4J9yoT-46" target="4pqUdJiJh8T_FT4J9yoT-38" edge="1">
          <mxGeometry relative="1" as="geometry" />
        </mxCell>
        <mxCell id="4pqUdJiJh8T_FT4J9yoT-1" value="Admin" style="swimlane;whiteSpace=wrap;startSize=23;" parent="1" vertex="1">
          <mxGeometry x="-90" y="50" width="410" height="910" as="geometry" />
        </mxCell>
        <mxCell id="4pqUdJiJh8T_FT4J9yoT-2" value="&lt;div&gt;&lt;span style=&quot;background-color: transparent; color: light-dark(rgb(0, 0, 0), rgb(255, 255, 255));&quot;&gt;Xem thông tin các accounts&lt;/span&gt;&lt;/div&gt;" style="html=1;align=center;verticalAlign=middle;rounded=1;absoluteArcSize=1;arcSize=10;dashed=0;whiteSpace=wrap;labelPosition=center;verticalLabelPosition=middle;" parent="4pqUdJiJh8T_FT4J9yoT-1" vertex="1">
          <mxGeometry x="155" y="80" width="105" height="60" as="geometry" />
        </mxCell>
        <mxCell id="4pqUdJiJh8T_FT4J9yoT-3" style="edgeStyle=orthogonalEdgeStyle;rounded=0;orthogonalLoop=1;jettySize=auto;html=1;exitX=0.5;exitY=1;exitDx=0;exitDy=0;entryX=0.5;entryY=0;entryDx=0;entryDy=0;" parent="4pqUdJiJh8T_FT4J9yoT-1" source="4pqUdJiJh8T_FT4J9yoT-4" target="4pqUdJiJh8T_FT4J9yoT-5" edge="1">
          <mxGeometry relative="1" as="geometry" />
        </mxCell>
        <mxCell id="4pqUdJiJh8T_FT4J9yoT-4" value="Chọn account" style="html=1;align=center;verticalAlign=middle;rounded=1;absoluteArcSize=1;arcSize=10;dashed=0;whiteSpace=wrap;labelPosition=center;verticalLabelPosition=middle;" parent="4pqUdJiJh8T_FT4J9yoT-1" vertex="1">
          <mxGeometry x="155" y="260" width="105" height="50" as="geometry" />
        </mxCell>
        <mxCell id="4pqUdJiJh8T_FT4J9yoT-5" value="" style="rhombus;" parent="4pqUdJiJh8T_FT4J9yoT-1" vertex="1">
          <mxGeometry x="192.5" y="350" width="30" height="30" as="geometry" />
        </mxCell>
        <mxCell id="4pqUdJiJh8T_FT4J9yoT-6" value="Điền thông tin cập nhật" style="html=1;align=center;verticalAlign=middle;rounded=1;absoluteArcSize=1;arcSize=10;dashed=0;whiteSpace=wrap;labelPosition=center;verticalLabelPosition=middle;" parent="4pqUdJiJh8T_FT4J9yoT-1" vertex="1">
          <mxGeometry x="155" y="430" width="105" height="50" as="geometry" />
        </mxCell>
        <mxCell id="4pqUdJiJh8T_FT4J9yoT-7" value="" style="html=1;points=[];perimeter=orthogonalPerimeter;fillColor=strokeColor;rotation=90;" parent="4pqUdJiJh8T_FT4J9yoT-1" vertex="1">
          <mxGeometry x="205" y="450" width="5" height="120" as="geometry" />
        </mxCell>
        <mxCell id="4pqUdJiJh8T_FT4J9yoT-8" value="Điền password mới" style="html=1;align=center;verticalAlign=middle;rounded=1;absoluteArcSize=1;arcSize=10;dashed=0;whiteSpace=wrap;labelPosition=center;verticalLabelPosition=middle;" parent="4pqUdJiJh8T_FT4J9yoT-1" vertex="1">
          <mxGeometry x="87.5" y="555" width="105" height="50" as="geometry" />
        </mxCell>
        <mxCell id="4pqUdJiJh8T_FT4J9yoT-9" value="Phân quyền" style="html=1;align=center;verticalAlign=middle;rounded=1;absoluteArcSize=1;arcSize=10;dashed=0;whiteSpace=wrap;labelPosition=center;verticalLabelPosition=middle;" parent="4pqUdJiJh8T_FT4J9yoT-1" vertex="1">
          <mxGeometry x="222.5" y="555" width="105" height="50" as="geometry" />
        </mxCell>
        <mxCell id="4pqUdJiJh8T_FT4J9yoT-10" value="" style="html=1;points=[];perimeter=orthogonalPerimeter;fillColor=strokeColor;rotation=90;" parent="4pqUdJiJh8T_FT4J9yoT-1" vertex="1">
          <mxGeometry x="202.5" y="590" width="5" height="120" as="geometry" />
        </mxCell>
        <mxCell id="DdnqrQrbmhGyfXUC-0TE-1" style="edgeStyle=orthogonalEdgeStyle;rounded=0;orthogonalLoop=1;jettySize=auto;html=1;entryX=0;entryY=0.5;entryDx=0;entryDy=0;dashed=1;" edge="1" parent="4pqUdJiJh8T_FT4J9yoT-1" source="4pqUdJiJh8T_FT4J9yoT-11" target="4pqUdJiJh8T_FT4J9yoT-24">
          <mxGeometry relative="1" as="geometry" />
        </mxCell>
        <mxCell id="4pqUdJiJh8T_FT4J9yoT-11" value="" style="rhombus;" parent="4pqUdJiJh8T_FT4J9yoT-1" vertex="1">
          <mxGeometry x="192.5" y="695" width="30" height="30" as="geometry" />
        </mxCell>
        <mxCell id="4pqUdJiJh8T_FT4J9yoT-12" value="[Chỉnh sửa account]" style="text;html=1;align=center;verticalAlign=middle;resizable=0;points=[];autosize=1;strokeColor=none;fillColor=none;" parent="4pqUdJiJh8T_FT4J9yoT-1" vertex="1">
          <mxGeometry x="270" y="338" width="130" height="30" as="geometry" />
        </mxCell>
        <mxCell id="4pqUdJiJh8T_FT4J9yoT-13" value="[Xóa account]" style="text;html=1;align=center;verticalAlign=middle;resizable=0;points=[];autosize=1;strokeColor=none;fillColor=none;" parent="4pqUdJiJh8T_FT4J9yoT-1" vertex="1">
          <mxGeometry x="82.5" y="338" width="100" height="30" as="geometry" />
        </mxCell>
        <mxCell id="4pqUdJiJh8T_FT4J9yoT-14" style="edgeStyle=orthogonalEdgeStyle;rounded=0;orthogonalLoop=1;jettySize=auto;html=1;exitX=0.5;exitY=1;exitDx=0;exitDy=0;entryX=0.55;entryY=0.5;entryDx=0;entryDy=0;entryPerimeter=0;" parent="4pqUdJiJh8T_FT4J9yoT-1" source="4pqUdJiJh8T_FT4J9yoT-6" target="4pqUdJiJh8T_FT4J9yoT-7" edge="1">
          <mxGeometry relative="1" as="geometry" />
        </mxCell>
        <mxCell id="4pqUdJiJh8T_FT4J9yoT-15" style="edgeStyle=orthogonalEdgeStyle;rounded=0;orthogonalLoop=1;jettySize=auto;html=1;exitX=0.381;exitY=0.5;exitDx=0;exitDy=0;exitPerimeter=0;entryX=0.5;entryY=0;entryDx=0;entryDy=0;" parent="4pqUdJiJh8T_FT4J9yoT-1" source="4pqUdJiJh8T_FT4J9yoT-7" target="4pqUdJiJh8T_FT4J9yoT-8" edge="1">
          <mxGeometry relative="1" as="geometry">
            <mxPoint x="218" y="490" as="sourcePoint" />
            <mxPoint x="160" y="550" as="targetPoint" />
            <Array as="points">
              <mxPoint x="208" y="530" />
              <mxPoint x="140" y="530" />
              <mxPoint x="140" y="555" />
            </Array>
          </mxGeometry>
        </mxCell>
        <mxCell id="4pqUdJiJh8T_FT4J9yoT-16" style="edgeStyle=orthogonalEdgeStyle;rounded=0;orthogonalLoop=1;jettySize=auto;html=1;entryX=0.5;entryY=0;entryDx=0;entryDy=0;" parent="4pqUdJiJh8T_FT4J9yoT-1" target="4pqUdJiJh8T_FT4J9yoT-9" edge="1">
          <mxGeometry relative="1" as="geometry">
            <mxPoint x="208" y="513" as="sourcePoint" />
            <mxPoint x="143" y="565" as="targetPoint" />
            <Array as="points">
              <mxPoint x="208" y="530" />
              <mxPoint x="275" y="530" />
            </Array>
          </mxGeometry>
        </mxCell>
        <mxCell id="4pqUdJiJh8T_FT4J9yoT-17" style="edgeStyle=orthogonalEdgeStyle;rounded=0;orthogonalLoop=1;jettySize=auto;html=1;exitX=0.5;exitY=1;exitDx=0;exitDy=0;entryX=0.711;entryY=0.473;entryDx=0;entryDy=0;entryPerimeter=0;" parent="4pqUdJiJh8T_FT4J9yoT-1" source="4pqUdJiJh8T_FT4J9yoT-8" target="4pqUdJiJh8T_FT4J9yoT-10" edge="1">
          <mxGeometry relative="1" as="geometry" />
        </mxCell>
        <mxCell id="4pqUdJiJh8T_FT4J9yoT-18" style="edgeStyle=orthogonalEdgeStyle;rounded=0;orthogonalLoop=1;jettySize=auto;html=1;exitX=0.5;exitY=1;exitDx=0;exitDy=0;entryX=0.78;entryY=0.472;entryDx=0;entryDy=0;entryPerimeter=0;" parent="4pqUdJiJh8T_FT4J9yoT-1" source="4pqUdJiJh8T_FT4J9yoT-9" target="4pqUdJiJh8T_FT4J9yoT-10" edge="1">
          <mxGeometry relative="1" as="geometry" />
        </mxCell>
        <mxCell id="4pqUdJiJh8T_FT4J9yoT-19" style="rounded=0;orthogonalLoop=1;jettySize=auto;html=1;entryX=0.5;entryY=0;entryDx=0;entryDy=0;" parent="4pqUdJiJh8T_FT4J9yoT-1" target="4pqUdJiJh8T_FT4J9yoT-11" edge="1">
          <mxGeometry relative="1" as="geometry">
            <mxPoint x="208" y="650" as="sourcePoint" />
            <mxPoint x="218" y="360" as="targetPoint" />
          </mxGeometry>
        </mxCell>
        <mxCell id="4pqUdJiJh8T_FT4J9yoT-20" value="[save]" style="text;html=1;align=center;verticalAlign=middle;resizable=0;points=[];autosize=1;strokeColor=none;fillColor=none;" parent="4pqUdJiJh8T_FT4J9yoT-1" vertex="1">
          <mxGeometry x="245" y="685" width="60" height="30" as="geometry" />
        </mxCell>
        <mxCell id="4pqUdJiJh8T_FT4J9yoT-21" value="[cancel]" style="text;html=1;align=center;verticalAlign=middle;resizable=0;points=[];autosize=1;strokeColor=none;fillColor=none;" parent="4pqUdJiJh8T_FT4J9yoT-1" vertex="1">
          <mxGeometry x="260" y="740" width="60" height="30" as="geometry" />
        </mxCell>
        <mxCell id="4pqUdJiJh8T_FT4J9yoT-22" value="Hiển thị update form" style="html=1;align=center;verticalAlign=middle;rounded=1;absoluteArcSize=1;arcSize=10;dashed=0;whiteSpace=wrap;labelPosition=center;verticalLabelPosition=middle;" parent="4pqUdJiJh8T_FT4J9yoT-1" vertex="1">
          <mxGeometry x="472.5" y="340" width="105" height="50" as="geometry" />
        </mxCell>
        <mxCell id="4pqUdJiJh8T_FT4J9yoT-23" style="edgeStyle=orthogonalEdgeStyle;rounded=0;orthogonalLoop=1;jettySize=auto;html=1;exitX=1;exitY=0.5;exitDx=0;exitDy=0;entryX=0;entryY=0.5;entryDx=0;entryDy=0;" parent="4pqUdJiJh8T_FT4J9yoT-1" source="4pqUdJiJh8T_FT4J9yoT-24" target="4pqUdJiJh8T_FT4J9yoT-25" edge="1">
          <mxGeometry relative="1" as="geometry" />
        </mxCell>
        <mxCell id="4pqUdJiJh8T_FT4J9yoT-25" value="Cập nhật account" style="html=1;align=center;verticalAlign=middle;rounded=1;absoluteArcSize=1;arcSize=10;dashed=0;whiteSpace=wrap;labelPosition=center;verticalLabelPosition=middle;" parent="4pqUdJiJh8T_FT4J9yoT-1" vertex="1">
          <mxGeometry x="490" y="685" width="105" height="50" as="geometry" />
        </mxCell>
        <mxCell id="4pqUdJiJh8T_FT4J9yoT-26" value="" style="html=1;points=[];perimeter=orthogonalPerimeter;fillColor=strokeColor;" parent="4pqUdJiJh8T_FT4J9yoT-1" vertex="1">
          <mxGeometry x="640" y="670" width="5" height="80" as="geometry" />
        </mxCell>
        <mxCell id="4pqUdJiJh8T_FT4J9yoT-27" value="Xóa account" style="html=1;align=center;verticalAlign=middle;rounded=1;absoluteArcSize=1;arcSize=10;dashed=0;whiteSpace=wrap;labelPosition=center;verticalLabelPosition=middle;" parent="4pqUdJiJh8T_FT4J9yoT-1" vertex="1">
          <mxGeometry x="490" y="800" width="105" height="50" as="geometry" />
        </mxCell>
        <mxCell id="4pqUdJiJh8T_FT4J9yoT-28" value="" style="rhombus;" parent="4pqUdJiJh8T_FT4J9yoT-1" vertex="1">
          <mxGeometry x="680" y="720" width="30" height="30" as="geometry" />
        </mxCell>
        <mxCell id="4pqUdJiJh8T_FT4J9yoT-29" style="edgeStyle=orthogonalEdgeStyle;rounded=0;orthogonalLoop=1;jettySize=auto;html=1;exitX=1;exitY=0.5;exitDx=0;exitDy=0;entryX=-0.311;entryY=0.511;entryDx=0;entryDy=0;entryPerimeter=0;" parent="4pqUdJiJh8T_FT4J9yoT-1" source="4pqUdJiJh8T_FT4J9yoT-25" target="4pqUdJiJh8T_FT4J9yoT-26" edge="1">
          <mxGeometry relative="1" as="geometry" />
        </mxCell>
        <mxCell id="4pqUdJiJh8T_FT4J9yoT-30" style="edgeStyle=orthogonalEdgeStyle;rounded=0;orthogonalLoop=1;jettySize=auto;html=1;exitX=0.756;exitY=0.522;exitDx=0;exitDy=0;entryX=0;entryY=0.5;entryDx=0;entryDy=0;exitPerimeter=0;" parent="4pqUdJiJh8T_FT4J9yoT-1" source="4pqUdJiJh8T_FT4J9yoT-26" target="4pqUdJiJh8T_FT4J9yoT-28" edge="1">
          <mxGeometry relative="1" as="geometry">
            <mxPoint x="605" y="720" as="sourcePoint" />
            <mxPoint x="648" y="721" as="targetPoint" />
          </mxGeometry>
        </mxCell>
        <mxCell id="4pqUdJiJh8T_FT4J9yoT-31" style="edgeStyle=orthogonalEdgeStyle;rounded=0;orthogonalLoop=1;jettySize=auto;html=1;exitX=1;exitY=0.5;exitDx=0;exitDy=0;entryX=0;entryY=0.5;entryDx=0;entryDy=0;" parent="4pqUdJiJh8T_FT4J9yoT-1" source="4pqUdJiJh8T_FT4J9yoT-5" target="4pqUdJiJh8T_FT4J9yoT-22" edge="1">
          <mxGeometry relative="1" as="geometry">
            <mxPoint x="470.0000000000001" y="364.75" as="targetPoint" />
          </mxGeometry>
        </mxCell>
        <mxCell id="4pqUdJiJh8T_FT4J9yoT-32" style="edgeStyle=orthogonalEdgeStyle;rounded=0;orthogonalLoop=1;jettySize=auto;html=1;exitX=0;exitY=0.5;exitDx=0;exitDy=0;entryX=0;entryY=0.5;entryDx=0;entryDy=0;" parent="4pqUdJiJh8T_FT4J9yoT-1" source="4pqUdJiJh8T_FT4J9yoT-5" target="4pqUdJiJh8T_FT4J9yoT-27" edge="1">
          <mxGeometry relative="1" as="geometry">
            <Array as="points">
              <mxPoint x="40" y="365" />
              <mxPoint x="40" y="825" />
            </Array>
          </mxGeometry>
        </mxCell>
        <mxCell id="4pqUdJiJh8T_FT4J9yoT-33" style="edgeStyle=orthogonalEdgeStyle;rounded=0;orthogonalLoop=1;jettySize=auto;html=1;exitX=0.5;exitY=1;exitDx=0;exitDy=0;entryX=1;entryY=0.5;entryDx=0;entryDy=0;" parent="4pqUdJiJh8T_FT4J9yoT-1" source="4pqUdJiJh8T_FT4J9yoT-22" target="4pqUdJiJh8T_FT4J9yoT-6" edge="1">
          <mxGeometry relative="1" as="geometry" />
        </mxCell>
        <mxCell id="4pqUdJiJh8T_FT4J9yoT-35" style="edgeStyle=orthogonalEdgeStyle;rounded=0;orthogonalLoop=1;jettySize=auto;html=1;exitX=0.5;exitY=1;exitDx=0;exitDy=0;entryX=0.5;entryY=1;entryDx=0;entryDy=0;" parent="4pqUdJiJh8T_FT4J9yoT-1" source="4pqUdJiJh8T_FT4J9yoT-11" target="4pqUdJiJh8T_FT4J9yoT-28" edge="1">
          <mxGeometry relative="1" as="geometry" />
        </mxCell>
        <mxCell id="4pqUdJiJh8T_FT4J9yoT-36" style="edgeStyle=orthogonalEdgeStyle;rounded=0;orthogonalLoop=1;jettySize=auto;html=1;exitX=0;exitY=0.5;exitDx=0;exitDy=0;entryX=1;entryY=0.5;entryDx=0;entryDy=0;" parent="4pqUdJiJh8T_FT4J9yoT-1" source="4pqUdJiJh8T_FT4J9yoT-38" target="4pqUdJiJh8T_FT4J9yoT-39" edge="1">
          <mxGeometry relative="1" as="geometry" />
        </mxCell>
        <mxCell id="4pqUdJiJh8T_FT4J9yoT-37" style="edgeStyle=orthogonalEdgeStyle;rounded=0;orthogonalLoop=1;jettySize=auto;html=1;exitX=0.5;exitY=1;exitDx=0;exitDy=0;entryX=0.5;entryY=0;entryDx=0;entryDy=0;" parent="4pqUdJiJh8T_FT4J9yoT-1" source="4pqUdJiJh8T_FT4J9yoT-38" target="4pqUdJiJh8T_FT4J9yoT-4" edge="1">
          <mxGeometry relative="1" as="geometry" />
        </mxCell>
        <mxCell id="4pqUdJiJh8T_FT4J9yoT-38" value="" style="rhombus;" parent="4pqUdJiJh8T_FT4J9yoT-1" vertex="1">
          <mxGeometry x="192.5" y="190" width="30" height="30" as="geometry" />
        </mxCell>
        <mxCell id="4pqUdJiJh8T_FT4J9yoT-39" value="" style="ellipse;html=1;shape=endState;fillColor=strokeColor;" parent="4pqUdJiJh8T_FT4J9yoT-1" vertex="1">
          <mxGeometry x="52.5" y="190" width="30" height="30" as="geometry" />
        </mxCell>
        <mxCell id="4pqUdJiJh8T_FT4J9yoT-40" value="[exit]" style="text;html=1;align=center;verticalAlign=middle;resizable=0;points=[];autosize=1;strokeColor=none;fillColor=none;" parent="4pqUdJiJh8T_FT4J9yoT-1" vertex="1">
          <mxGeometry x="122.5" y="180" width="50" height="30" as="geometry" />
        </mxCell>
        <mxCell id="4pqUdJiJh8T_FT4J9yoT-41" value="[continue]" style="text;html=1;align=center;verticalAlign=middle;resizable=0;points=[];autosize=1;strokeColor=none;fillColor=none;" parent="4pqUdJiJh8T_FT4J9yoT-1" vertex="1">
          <mxGeometry x="202.5" y="220" width="80" height="30" as="geometry" />
        </mxCell>
        <mxCell id="4pqUdJiJh8T_FT4J9yoT-42" style="edgeStyle=orthogonalEdgeStyle;rounded=0;orthogonalLoop=1;jettySize=auto;html=1;exitX=0.5;exitY=1;exitDx=0;exitDy=0;entryX=0.5;entryY=0;entryDx=0;entryDy=0;" parent="4pqUdJiJh8T_FT4J9yoT-1" source="4pqUdJiJh8T_FT4J9yoT-43" target="4pqUdJiJh8T_FT4J9yoT-2" edge="1">
          <mxGeometry relative="1" as="geometry" />
        </mxCell>
        <mxCell id="4pqUdJiJh8T_FT4J9yoT-43" value="" style="ellipse;fillColor=strokeColor;html=1;" parent="4pqUdJiJh8T_FT4J9yoT-1" vertex="1">
          <mxGeometry x="192.5" y="30" width="30" height="30" as="geometry" />
        </mxCell>
        <mxCell id="4pqUdJiJh8T_FT4J9yoT-24" value="Thông tin người dùng&lt;div&gt;[Đã chỉnh sửa]&lt;/div&gt;" style="html=1;align=center;verticalAlign=middle;dashed=0;whiteSpace=wrap;" parent="4pqUdJiJh8T_FT4J9yoT-1" vertex="1">
          <mxGeometry x="330" y="690" width="120" height="40" as="geometry" />
        </mxCell>
      </root>
    </mxGraphModel>
  </diagram>
</mxfile>
